<svg id="svg" version="1.1" xmlns="http://www.w3.org/2000/svg" xmlns:xlink="http://www.w3.org/1999/xlink" width="400" height="227.02702702702703" viewBox="0, 0, 400,227.02702702702703"><g id="svgg"><path id="path0" d="M0.000 51.893 L 0.000 103.785 0.792 103.645 C 1.227 103.568,3.533 103.238,5.917 102.911 C 8.300 102.585,12.313 102.025,14.833 101.666 C 17.354 101.308,20.842 100.824,22.583 100.591 C 24.325 100.358,26.200 100.094,26.750 100.004 C 27.300 99.914,30.225 99.498,33.250 99.079 C 38.994 98.285,45.334 97.398,46.333 97.251 C 46.654 97.203,48.304 96.975,50.000 96.743 C 51.696 96.511,55.408 95.990,58.250 95.586 C 61.092 95.182,65.329 94.587,67.667 94.263 C 70.004 93.940,72.442 93.597,73.083 93.501 C 73.725 93.405,75.637 93.137,77.333 92.905 C 79.029 92.674,82.479 92.192,85.000 91.835 C 87.521 91.477,91.496 90.919,93.833 90.593 C 100.204 89.705,108.346 88.564,113.583 87.825 C 116.150 87.463,119.600 86.980,121.250 86.751 C 122.900 86.522,126.350 86.038,128.917 85.675 C 131.483 85.313,135.533 84.748,137.917 84.421 C 140.300 84.093,142.700 83.753,143.250 83.664 C 143.800 83.575,145.675 83.310,147.417 83.076 C 149.158 82.841,152.646 82.357,155.167 81.999 C 157.688 81.641,161.700 81.080,164.083 80.754 C 166.467 80.427,168.867 80.089,169.417 80.001 C 169.967 79.914,172.367 79.573,174.750 79.244 C 177.133 78.916,181.146 78.356,183.667 78.000 C 186.188 77.645,190.200 77.083,192.583 76.751 C 194.967 76.420,198.454 75.932,200.333 75.665 C 202.213 75.399,205.662 74.918,208.000 74.595 C 210.338 74.273,212.775 73.930,213.417 73.833 C 214.058 73.737,216.496 73.394,218.833 73.071 C 221.171 72.748,225.146 72.191,227.667 71.833 C 230.188 71.476,234.162 70.919,236.500 70.596 C 238.838 70.273,241.275 69.930,241.917 69.833 C 242.558 69.737,244.996 69.394,247.333 69.072 C 253.741 68.187,258.458 67.527,259.667 67.344 C 260.262 67.253,262.137 66.989,263.833 66.756 C 265.529 66.523,269.017 66.037,271.583 65.674 C 274.150 65.312,278.162 64.752,280.500 64.429 C 282.837 64.106,285.275 63.764,285.917 63.668 C 286.558 63.572,288.471 63.303,290.167 63.072 C 291.862 62.840,295.837 62.282,299.000 61.833 C 302.162 61.384,306.700 60.746,309.083 60.416 C 311.467 60.086,314.429 59.673,315.667 59.497 C 316.904 59.322,322.229 58.577,327.500 57.841 C 332.771 57.106,337.608 56.426,338.250 56.331 C 338.892 56.235,341.854 55.818,344.833 55.404 C 347.813 54.990,351.787 54.435,353.667 54.169 C 355.546 53.904,358.508 53.491,360.250 53.250 C 361.992 53.010,366.004 52.446,369.167 51.998 C 372.329 51.550,376.304 50.994,378.000 50.762 C 379.696 50.530,381.608 50.265,382.250 50.173 C 382.892 50.081,383.979 49.927,384.667 49.831 C 385.354 49.734,386.367 49.585,386.917 49.500 C 387.467 49.414,388.817 49.225,389.917 49.079 C 392.404 48.750,398.729 47.864,399.458 47.742 L 400.000 47.652 400.000 23.826 L 400.000 0.000 200.000 0.000 L 0.000 0.000 0.000 51.893 " stroke="none" fill="#343434" fill-rule="evenodd"></path><path id="path1" d="M396.333 48.179 C 394.546 48.443,392.183 48.780,391.083 48.929 C 389.983 49.077,388.633 49.260,388.083 49.334 C 387.026 49.477,384.199 49.881,382.250 50.168 C 381.608 50.263,379.696 50.530,378.000 50.762 C 376.304 50.994,372.329 51.550,369.167 51.998 C 366.004 52.446,361.992 53.010,360.250 53.250 C 358.508 53.491,355.546 53.904,353.667 54.169 C 351.787 54.435,347.813 54.990,344.833 55.404 C 341.854 55.818,338.892 56.235,338.250 56.331 C 337.608 56.426,332.771 57.106,327.500 57.841 C 322.229 58.577,316.904 59.322,315.667 59.497 C 314.429 59.673,311.467 60.086,309.083 60.416 C 306.700 60.746,302.162 61.384,299.000 61.833 C 295.837 62.282,291.862 62.840,290.167 63.072 C 288.471 63.303,286.558 63.572,285.917 63.668 C 285.275 63.764,282.837 64.106,280.500 64.429 C 278.162 64.752,274.150 65.312,271.583 65.674 C 269.017 66.037,265.529 66.523,263.833 66.756 C 262.137 66.989,260.262 67.253,259.667 67.344 C 258.458 67.527,253.741 68.187,247.333 69.072 C 244.996 69.394,242.558 69.737,241.917 69.833 C 241.275 69.930,238.838 70.273,236.500 70.596 C 234.162 70.919,230.188 71.476,227.667 71.833 C 225.146 72.191,221.171 72.748,218.833 73.071 C 216.496 73.394,214.058 73.737,213.417 73.833 C 212.775 73.930,210.338 74.273,208.000 74.595 C 205.662 74.918,202.213 75.399,200.333 75.665 C 198.454 75.932,194.967 76.420,192.583 76.751 C 190.200 77.083,186.188 77.645,183.667 78.000 C 181.146 78.356,177.133 78.916,174.750 79.244 C 172.367 79.573,169.967 79.914,169.417 80.001 C 168.867 80.089,166.467 80.427,164.083 80.754 C 161.700 81.080,157.688 81.641,155.167 81.999 C 152.646 82.357,149.158 82.841,147.417 83.076 C 145.675 83.310,143.800 83.575,143.250 83.664 C 142.700 83.753,140.300 84.093,137.917 84.421 C 135.533 84.748,131.483 85.313,128.917 85.675 C 126.350 86.038,122.900 86.522,121.250 86.751 C 119.600 86.980,116.150 87.463,113.583 87.825 C 108.346 88.564,100.204 89.705,93.833 90.593 C 91.496 90.919,87.521 91.477,85.000 91.835 C 82.479 92.192,79.029 92.674,77.333 92.905 C 75.637 93.137,73.725 93.405,73.083 93.501 C 72.442 93.597,70.004 93.940,67.667 94.263 C 65.329 94.587,61.092 95.182,58.250 95.586 C 55.408 95.990,51.696 96.511,50.000 96.743 C 48.304 96.975,46.654 97.203,46.333 97.251 C 45.334 97.398,38.994 98.285,33.250 99.079 C 30.225 99.498,27.300 99.914,26.750 100.004 C 26.200 100.094,24.325 100.358,22.583 100.591 C 20.842 100.824,17.354 101.308,14.833 101.666 C 12.313 102.025,8.300 102.586,5.917 102.913 C 3.533 103.240,1.246 103.563,0.833 103.631 L 0.083 103.753 0.041 165.377 L -0.000 227.000 200.000 227.000 L 400.000 227.000 400.000 137.333 C 400.000 65.702,399.958 47.670,399.792 47.683 C 399.677 47.692,398.121 47.915,396.333 48.179 " stroke="none" fill="#fbfbfb" fill-rule="evenodd"></path></g></svg>